{"title":"Shutter.Island.2010.DVDRip.XviD[ENG]-NWO","uid":5876424,"size":732153704,"categoryP":"video","categoryS":"movies","magnet":"?xt=urn:btih:96d8f52b3bd3301b54bbc5cd9fad401be3797f83&amp;dn=Shutter.Island.2010.DVDRip.XviD%5BENG%5D-NWO&amp;tr=udp%3A%2F%2Ftracker.openbittorrent.com%3A80&amp;tr=udp%3A%2F%2Fopen.demonii.com%3A1337&amp;tr=udp%3A%2F%2Ftracker.coppersurfer.tk%3A6969&amp;tr=udp%3A%2F%2Fexodus.desync.com%3A6969","seeders":0,"leechers":0,"uploader":"mark1303","files":3,"time":1286656746,"description":"Format                           : AVI\nFormat/Info                      : Audio Video Interleave\nFile size                        : 698 MiB\nDuration                         : 2h 18mn\nOverall bit rate                 : 707 Kbps\nWriting application              : VirtualDubMod 1.5.10.2 (build 2540/release)\nWriting library                  : VirtualDubMod build 2540/release\n\nVideo\nID                               : 0\nFormat                           : MPEG-4 Visual\nFormat profile                   : Advanced Simple@L5\nFormat settings, BVOP            : Yes\nFormat settings, QPel            : No\nFormat settings, GMC             : No warppoints\nFormat settings, Matrix          : Default (H.263)\nCodec ID                         : DIVX\nCodec ID/Info                    : Project Mayo\nCodec ID/Hint                    : DivX 4\nDuration                         : 2h 18mn\nBit rate                         : 592 Kbps\nWidth                            : 672 pixels\nHeight                           : 280 pixels\nDisplay aspect ratio             : 2.40:1\nFrame rate                       : 23.976 fps\nColor space                      : YUV\nChroma subsampling               : 4:2:0\nBit depth                        : 8 bits\nScan type                        : Progressive\nBits/(Pixel*Frame)               : 0.131\nStream size                      : 585 MiB (84%)\nWriting library                  : XviD 1.2.1 (UTC 2008-12-04)\n\nAudio\nID                               : 1\nFormat                           : MPEG Audio\nFormat version                   : Version 1\nFormat profile                   : Layer 3\nMode                             : Joint stereo\nCodec ID                         : 55\nCodec ID/Hint                    : MP3\nDuration                         : 2h 18mn\nBit rate mode                    : Variable\nBit rate                         : 106 Kbps\nChannel(s)                       : 2 channels\nSampling rate                    : 44.1 KHz\nVideo delay                      : 313ms\nStream size                      : 101 MiB (14%)\nAlignment                        : Split accross interleaves\nInterleave, duration             : 26 ms (0.63 video frame)\nInterleave, preload duration     : 1170 ms\nWriting library                  : LAME3.98r\nEncoding settings                : -m j -V 4 -q 2 -lowpass 15.6 --abr 106","torrent":{"xt":"urn:btih:96d8f52b3bd3301b54bbc5cd9fad401be3797f83","amp;dn":"Shutter.Island.2010.DVDRip.XviD%5BENG%5D-NWO","amp;tr":["udp%3A%2F%2Ftracker.openbittorrent.com%3A80","udp%3A%2F%2Fopen.demonii.com%3A1337","udp%3A%2F%2Ftracker.coppersurfer.tk%3A6969","udp%3A%2F%2Fexodus.desync.com%3A6969"],"infoHash":"96d8f52b3bd3301b54bbc5cd9fad401be3797f83","infoHashBuffer":{"type":"Buffer","data":[150,216,245,43,59,211,48,27,84,187,197,205,159,173,64,27,227,121,127,131]},"announce":[],"urlList":[]}}